<?xml version="1.0" encoding="utf-8"?>
<svg xmlns="http://www.w3.org/2000/svg" xmlns:xlink="http://www.w3.org/1999/xlink" width="600" height="400" viewBox="0 0 600 400">
<defs>
  <clipPath id="clip00">
    <rect x="0" y="0" width="600" height="400"/>
  </clipPath>
</defs>
<polygon clip-path="url(#clip00)" points="
0,400 600,400 600,0 0,0 
  " fill="#313131" fill-opacity="1"/>
<defs>
  <clipPath id="clip01">
    <rect x="120" y="0" width="421" height="400"/>
  </clipPath>
</defs>
<polygon clip-path="url(#clip00)" points="
45.8815,369.674 596.063,369.674 596.063,23.3815 45.8815,23.3815 
  " fill="#313131" fill-opacity="1"/>
<defs>
  <clipPath id="clip02">
    <rect x="45" y="23" width="551" height="347"/>
  </clipPath>
</defs>
<polyline clip-path="url(#clip02)" style="stroke:#ffffff; stroke-opacity:0.5; fill:none" stroke-dasharray="1, 2" points="
  93.0985,364.48 93.0985,28.5758 
  "/>
<polyline clip-path="url(#clip02)" style="stroke:#ffffff; stroke-opacity:0.5; fill:none" stroke-dasharray="1, 2" points="
  195.744,364.48 195.744,28.5758 
  "/>
<polyline clip-path="url(#clip02)" style="stroke:#ffffff; stroke-opacity:0.5; fill:none" stroke-dasharray="1, 2" points="
  298.39,364.48 298.39,28.5758 
  "/>
<polyline clip-path="url(#clip02)" style="stroke:#ffffff; stroke-opacity:0.5; fill:none" stroke-dasharray="1, 2" points="
  401.036,364.48 401.036,28.5758 
  "/>
<polyline clip-path="url(#clip02)" style="stroke:#ffffff; stroke-opacity:0.5; fill:none" stroke-dasharray="1, 2" points="
  503.682,364.48 503.682,28.5758 
  "/>
<polyline clip-path="url(#clip02)" style="stroke:#ffffff; stroke-opacity:0.5; fill:none" stroke-dasharray="1, 2" points="
  54.1342,324.784 587.81,324.784 
  "/>
<polyline clip-path="url(#clip02)" style="stroke:#ffffff; stroke-opacity:0.5; fill:none" stroke-dasharray="1, 2" points="
  54.1342,260.656 587.81,260.656 
  "/>
<polyline clip-path="url(#clip02)" style="stroke:#ffffff; stroke-opacity:0.5; fill:none" stroke-dasharray="1, 2" points="
  54.1342,196.528 587.81,196.528 
  "/>
<polyline clip-path="url(#clip02)" style="stroke:#ffffff; stroke-opacity:0.5; fill:none" stroke-dasharray="1, 2" points="
  54.1342,132.4 587.81,132.4 
  "/>
<polyline clip-path="url(#clip02)" style="stroke:#ffffff; stroke-opacity:0.5; fill:none" stroke-dasharray="1, 2" points="
  54.1342,68.2712 587.81,68.2712 
  "/>
<polyline clip-path="url(#clip02)" style="stroke:#ffffff; stroke-opacity:1; fill:none" points="
  45.8815,369.674 596.063,369.674 
  "/>
<polyline clip-path="url(#clip02)" style="stroke:#ffffff; stroke-opacity:1; fill:none" points="
  93.0985,369.674 93.0985,364.48 
  "/>
<polyline clip-path="url(#clip02)" style="stroke:#ffffff; stroke-opacity:1; fill:none" points="
  195.744,369.674 195.744,364.48 
  "/>
<polyline clip-path="url(#clip02)" style="stroke:#ffffff; stroke-opacity:1; fill:none" points="
  298.39,369.674 298.39,364.48 
  "/>
<polyline clip-path="url(#clip02)" style="stroke:#ffffff; stroke-opacity:1; fill:none" points="
  401.036,369.674 401.036,364.48 
  "/>
<polyline clip-path="url(#clip02)" style="stroke:#ffffff; stroke-opacity:1; fill:none" points="
  503.682,369.674 503.682,364.48 
  "/>
<polyline clip-path="url(#clip02)" style="stroke:#ffffff; stroke-opacity:1; fill:none" points="
  45.8815,369.674 45.8815,23.3815 
  "/>
<polyline clip-path="url(#clip02)" style="stroke:#ffffff; stroke-opacity:1; fill:none" points="
  45.8815,324.784 54.1342,324.784 
  "/>
<polyline clip-path="url(#clip02)" style="stroke:#ffffff; stroke-opacity:1; fill:none" points="
  45.8815,260.656 54.1342,260.656 
  "/>
<polyline clip-path="url(#clip02)" style="stroke:#ffffff; stroke-opacity:1; fill:none" points="
  45.8815,196.528 54.1342,196.528 
  "/>
<polyline clip-path="url(#clip02)" style="stroke:#ffffff; stroke-opacity:1; fill:none" points="
  45.8815,132.4 54.1342,132.4 
  "/>
<polyline clip-path="url(#clip02)" style="stroke:#ffffff; stroke-opacity:1; fill:none" points="
  45.8815,68.2712 54.1342,68.2712 
  "/>
<g clip-path="url(#clip00)">
<text style="fill:#ffffff; font-family:Arial; font-size:12; text-anchor:middle;" transform="rotate(0, 93.0985, 381.674)" x="93.0985" y="381.674">5000</text>
</g>
<g clip-path="url(#clip00)">
<text style="fill:#ffffff; font-family:Arial; font-size:12; text-anchor:middle;" transform="rotate(0, 195.744, 381.674)" x="195.744" y="381.674">6000</text>
</g>
<g clip-path="url(#clip00)">
<text style="fill:#ffffff; font-family:Arial; font-size:12; text-anchor:middle;" transform="rotate(0, 298.39, 381.674)" x="298.39" y="381.674">7000</text>
</g>
<g clip-path="url(#clip00)">
<text style="fill:#ffffff; font-family:Arial; font-size:12; text-anchor:middle;" transform="rotate(0, 401.036, 381.674)" x="401.036" y="381.674">8000</text>
</g>
<g clip-path="url(#clip00)">
<text style="fill:#ffffff; font-family:Arial; font-size:12; text-anchor:middle;" transform="rotate(0, 503.682, 381.674)" x="503.682" y="381.674">9000</text>
</g>
<g clip-path="url(#clip00)">
<text style="fill:#ffffff; font-family:Arial; font-size:12; text-anchor:end;" transform="rotate(0, 44.6815, 329.284)" x="44.6815" y="329.284">520</text>
</g>
<g clip-path="url(#clip00)">
<text style="fill:#ffffff; font-family:Arial; font-size:12; text-anchor:end;" transform="rotate(0, 44.6815, 265.156)" x="44.6815" y="265.156">540</text>
</g>
<g clip-path="url(#clip00)">
<text style="fill:#ffffff; font-family:Arial; font-size:12; text-anchor:end;" transform="rotate(0, 44.6815, 201.028)" x="44.6815" y="201.028">560</text>
</g>
<g clip-path="url(#clip00)">
<text style="fill:#ffffff; font-family:Arial; font-size:12; text-anchor:end;" transform="rotate(0, 44.6815, 136.9)" x="44.6815" y="136.9">580</text>
</g>
<g clip-path="url(#clip00)">
<text style="fill:#ffffff; font-family:Arial; font-size:12; text-anchor:end;" transform="rotate(0, 44.6815, 72.7712)" x="44.6815" y="72.7712">600</text>
</g>
<g clip-path="url(#clip00)">
<text style="fill:#ffffff; font-family:Arial; font-size:21; text-anchor:middle;" transform="rotate(0, 320.972, 18)" x="320.972" y="18">Potentiometer reading vs. time</text>
</g>
<g clip-path="url(#clip00)">
<text style="fill:#ffffff; font-family:Arial; font-size:16; text-anchor:middle;" transform="rotate(0, 320.972, 397.6)" x="320.972" y="397.6">Time [ms]</text>
</g>
<g clip-path="url(#clip00)">
<text style="fill:#ffffff; font-family:Arial; font-size:16; text-anchor:middle;" transform="rotate(-90, 14.4, 196.528)" x="14.4" y="196.528">Voltage signal [ADC units]</text>
</g>
<polyline clip-path="url(#clip02)" style="stroke:#00d0ff; stroke-opacity:1; fill:none" points="
  45.8815,33.0007 47.9344,39.4135 49.9873,49.0328 52.0402,45.8263 54.0931,58.652 56.146,61.8584 58.1989,71.4777 60.2519,68.2712 62.3048,90.7161 64.3577,106.748 
  66.4106,106.748 68.4635,109.955 70.5164,109.955 72.5694,129.193 74.6223,125.987 76.6752,125.987 78.7281,151.638 80.781,158.051 82.8339,148.432 84.8869,158.051 
  86.9398,183.702 88.9927,190.115 91.0456,196.528 93.0985,199.734 95.1514,225.385 97.2044,231.798 99.2573,235.005 101.31,231.798 103.363,244.624 105.416,247.83 
  107.469,247.83 109.522,251.037 111.575,260.656 113.628,260.656 115.681,260.656 117.734,251.037 119.786,247.83 121.839,267.069 123.892,263.862 125.945,260.656 
  127.998,263.862 130.051,276.688 132.104,273.482 134.157,267.069 136.21,263.862 138.263,279.895 140.316,270.275 142.369,267.069 144.421,283.101 146.474,279.895 
  148.527,273.482 150.58,273.482 152.633,283.101 154.686,279.895 156.739,276.688 158.792,273.482 160.845,286.307 162.898,279.895 164.951,276.688 167.004,267.069 
  169.056,247.83 171.109,254.243 173.162,241.418 175.215,228.592 177.268,225.385 179.321,222.179 181.374,202.941 183.427,190.115 185.48,177.289 187.533,174.083 
  189.586,148.432 191.639,135.606 193.691,129.193 195.744,138.812 197.797,135.606 199.85,119.574 201.903,119.574 203.956,122.78 206.009,109.955 208.062,103.542 
  210.115,109.955 212.168,90.7161 214.221,74.6841 216.273,65.0648 218.326,55.4456 220.379,68.2712 222.432,55.4456 224.485,55.4456 226.538,52.2392 228.591,68.2712 
  230.644,58.652 232.697,52.2392 234.75,58.652 236.803,74.6841 238.856,97.129 240.908,109.955 242.961,125.987 245.014,145.225 247.067,154.844 249.12,154.844 
  251.173,161.257 253.226,177.289 255.279,180.496 257.332,174.083 259.385,186.909 261.438,190.115 263.491,190.115 265.543,186.909 267.596,190.115 269.649,209.353 
  271.702,193.321 273.755,199.734 275.808,202.941 277.861,212.56 279.914,196.528 281.967,202.941 284.02,202.941 286.073,202.941 288.126,202.941 290.178,193.321 
  292.231,196.528 294.284,206.147 296.337,199.734 298.39,180.496 300.443,170.876 302.496,154.844 304.549,151.638 306.602,135.606 308.655,132.4 310.708,129.193 
  312.761,129.193 314.813,119.574 316.866,119.574 318.919,119.574 320.972,119.574 323.025,97.129 325.078,93.9225 327.131,109.955 329.184,103.542 331.237,84.3033 
  333.29,81.0969 335.343,87.5097 337.396,65.0648 339.448,55.4456 341.501,55.4456 343.554,55.4456 345.607,55.4456 347.66,36.2071 349.713,42.6199 351.766,49.0328 
  353.819,36.2071 355.872,23.3815 357.925,33.0007 359.978,36.2071 362.031,33.0007 364.083,33.0007 366.136,39.4135 368.189,36.2071 370.242,42.6199 372.295,42.6199 
  374.348,45.8263 376.401,65.0648 378.454,81.0969 380.507,87.5097 382.56,93.9225 384.613,106.748 386.666,109.955 388.718,106.748 390.771,106.748 392.824,122.78 
  394.877,125.987 396.93,113.161 398.983,109.955 401.036,135.606 403.089,129.193 405.142,122.78 407.195,138.812 409.248,151.638 411.301,154.844 413.353,161.257 
  415.406,170.876 417.459,183.702 419.512,177.289 421.565,183.702 423.618,170.876 425.671,193.321 427.724,190.115 429.777,193.321 431.83,190.115 433.883,206.147 
  435.936,212.56 437.988,215.766 440.041,215.766 442.094,235.005 444.147,238.211 446.2,228.592 448.253,241.418 450.306,254.243 452.359,257.45 454.412,251.037 
  456.465,273.482 458.518,292.72 460.571,302.339 462.623,292.72 464.676,292.72 466.729,315.165 468.782,302.339 470.835,311.959 472.888,315.165 474.941,324.784 
  476.994,315.165 479.047,318.371 481.1,321.578 483.153,331.197 485.206,324.784 487.258,334.404 489.311,331.197 491.364,331.197 493.417,340.816 495.47,347.229 
  497.523,344.023 499.576,347.229 501.629,363.261 503.682,344.023 505.735,344.023 507.788,369.674 509.841,356.848 511.893,350.436 513.946,350.436 515.999,360.055 
  518.052,366.468 520.105,350.436 522.158,350.436 524.211,360.055 526.264,366.468 528.317,350.436 530.37,353.642 532.423,363.261 534.476,350.436 536.528,353.642 
  538.581,356.848 540.634,350.436 542.687,353.642 544.74,350.436 546.793,347.229 548.846,350.436 550.899,360.055 552.952,350.436 555.005,350.436 557.058,353.642 
  559.111,363.261 561.163,353.642 563.216,353.642 565.269,353.642 567.322,360.055 569.375,347.229 571.428,347.229 573.481,366.468 575.534,356.848 577.587,356.848 
  579.64,350.436 581.693,360.055 583.745,360.055 585.798,353.642 587.851,353.642 589.904,353.642 591.957,356.848 594.01,353.642 596.063,353.642 
  "/>
<polyline clip-path="url(#clip02)" style="stroke:#ffa079; stroke-opacity:1; fill:none" points="
  45.8815,29.7943 47.9344,33.0007 49.9873,39.4135 52.0402,45.8263 54.0931,52.2392 56.146,58.652 58.1989,61.8584 60.2519,74.6841 62.3048,87.5097 64.3577,97.129 
  66.4106,103.542 68.4635,113.161 70.5164,119.574 72.5694,125.987 74.6223,129.193 76.6752,135.606 78.7281,145.225 80.781,148.432 82.8339,158.051 84.8869,164.464 
  86.9398,174.083 88.9927,183.702 91.0456,193.321 93.0985,206.147 95.1514,212.56 97.2044,222.179 99.2573,228.592 101.31,235.005 103.363,238.211 105.416,241.418 
  107.469,244.624 109.522,247.83 111.575,251.037 113.628,254.243 115.681,254.243 117.734,257.45 119.786,257.45 121.839,260.656 123.892,260.656 125.945,263.862 
  127.998,267.069 130.051,267.069 132.104,267.069 134.157,267.069 136.21,270.275 138.263,270.275 140.316,270.275 142.369,270.275 144.421,273.482 146.474,273.482 
  148.527,273.482 150.58,273.482 152.633,276.688 154.686,276.688 156.739,276.688 158.792,273.482 160.845,273.482 162.898,273.482 164.951,270.275 167.004,263.862 
  169.056,254.243 171.109,247.83 173.162,241.418 175.215,235.005 177.268,231.798 179.321,215.766 181.374,206.147 183.427,193.321 185.48,183.702 187.533,167.67 
  189.586,148.432 191.639,142.019 193.691,135.606 195.744,132.4 197.797,125.987 199.85,125.987 201.903,119.574 203.956,116.367 206.009,113.161 208.062,109.955 
  210.115,100.335 212.168,87.5097 214.221,77.8905 216.273,68.2712 218.326,58.652 220.379,58.652 222.432,55.4456 224.485,55.4456 226.538,58.652 228.591,58.652 
  230.644,55.4456 232.697,58.652 234.75,61.8584 236.803,77.8905 238.856,97.129 240.908,113.161 242.961,122.78 245.014,132.4 247.067,142.019 249.12,154.844 
  251.173,164.464 253.226,167.67 255.279,170.876 257.332,177.289 259.385,180.496 261.438,183.702 263.491,183.702 265.543,186.909 267.596,190.115 269.649,199.734 
  271.702,199.734 273.755,202.941 275.808,202.941 277.861,202.941 279.914,202.941 281.967,202.941 284.02,202.941 286.073,202.941 288.126,202.941 290.178,202.941 
  292.231,199.734 294.284,199.734 296.337,193.321 298.39,183.702 300.443,170.876 302.496,154.844 304.549,145.225 306.602,135.606 308.655,135.606 310.708,129.193 
  312.761,122.78 314.813,119.574 316.866,116.367 318.919,113.161 320.972,106.748 323.025,103.542 325.078,103.542 327.131,103.542 329.184,100.335 331.237,93.9225 
  333.29,90.7161 335.343,84.3033 337.396,74.6841 339.448,65.0648 341.501,58.652 343.554,55.4456 345.607,49.0328 347.66,49.0328 349.713,42.6199 351.766,39.4135 
  353.819,33.0007 355.872,29.7943 357.925,29.7943 359.978,26.5879 362.031,29.7943 364.083,29.7943 366.136,29.7943 368.189,29.7943 370.242,33.0007 372.295,42.6199 
  374.348,52.2392 376.401,58.652 378.454,74.6841 380.507,87.5097 382.56,100.335 384.613,103.542 386.666,103.542 388.718,109.955 390.771,113.161 392.824,116.367 
  394.877,116.367 396.93,119.574 398.983,119.574 401.036,122.78 403.089,125.987 405.142,129.193 407.195,132.4 409.248,142.019 411.301,148.432 413.353,154.844 
  415.406,161.257 417.459,167.67 419.512,174.083 421.565,180.496 423.618,183.702 425.671,183.702 427.724,186.909 429.777,190.115 431.83,196.528 433.883,199.734 
  435.936,209.353 437.988,215.766 440.041,218.973 442.094,225.385 444.147,231.798 446.2,235.005 448.253,238.211 450.306,244.624 452.359,251.037 454.412,257.45 
  456.465,273.482 458.518,279.895 460.571,289.514 462.623,292.72 464.676,295.927 466.729,302.339 468.782,305.546 470.835,311.959 472.888,311.959 474.941,315.165 
  476.994,318.371 479.047,321.578 481.1,324.784 483.153,324.784 485.206,327.991 487.258,331.197 489.311,334.404 491.364,337.61 493.417,340.816 495.47,347.229 
  497.523,347.229 499.576,350.436 501.629,350.436 503.682,350.436 505.735,353.642 507.788,353.642 509.841,353.642 511.893,353.642 513.946,353.642 515.999,353.642 
  518.052,353.642 520.105,353.642 522.158,353.642 524.211,353.642 526.264,353.642 528.317,353.642 530.37,353.642 532.423,353.642 534.476,353.642 536.528,353.642 
  538.581,353.642 540.634,353.642 542.687,353.642 544.74,353.642 546.793,353.642 548.846,353.642 550.899,353.642 552.952,353.642 555.005,353.642 557.058,353.642 
  559.111,353.642 561.163,353.642 563.216,353.642 565.269,353.642 567.322,353.642 569.375,353.642 571.428,353.642 573.481,353.642 575.534,353.642 577.587,353.642 
  579.64,353.642 581.693,353.642 583.745,353.642 585.798,353.642 587.851,353.642 589.904,353.642 591.957,353.642 594.01,353.642 596.063,353.642 
  "/>
<polygon clip-path="url(#clip00)" points="
481.192,89.6215 578.063,89.6215 578.063,44.2615 481.192,44.2615 
  " fill="#313131" fill-opacity="1"/>
<polyline clip-path="url(#clip00)" style="stroke:#ffffff; stroke-opacity:1; fill:none" points="
  481.192,89.6215 578.063,89.6215 578.063,44.2615 481.192,44.2615 481.192,89.6215 
  "/>
<polyline clip-path="url(#clip00)" style="stroke:#00d0ff; stroke-opacity:1; fill:none" points="
  487.192,59.3815 523.192,59.3815 
  "/>
<g clip-path="url(#clip00)">
<text style="fill:#ffffff; font-family:Arial; font-size:12; text-anchor:start;" transform="rotate(0, 529.192, 63.8815)" x="529.192" y="63.8815">raw</text>
</g>
<polyline clip-path="url(#clip00)" style="stroke:#ffa079; stroke-opacity:1; fill:none" points="
  487.192,74.5015 523.192,74.5015 
  "/>
<g clip-path="url(#clip00)">
<text style="fill:#ffffff; font-family:Arial; font-size:12; text-anchor:start;" transform="rotate(0, 529.192, 79.0015)" x="529.192" y="79.0015">EWMA</text>
</g>
</svg>
